<svg xmlns="http://www.w3.org/2000/svg" viewBox="0 0 512 512">
    <g fill="#F2F2F2">
        <path d="M484.973 122.808l-32.685 328.21H59.712L33.38 129.16 256 253.802"/>
        <path d="M473.886 60.983L256 265.66 38.114 60.982H256"/>
    </g>
    <path d="M59.712 155.493v295.524H24.14c-13.328 0-24.14-10.81-24.14-24.14v-314.91l39 1.063 20.712 42.463z"
          fill="#F14336"/>
    <path d="M512 111.967V426.88c0 13.326-10.812 24.138-24.152 24.138h-35.56V155.493l19.692-46.525 40.02 3z"
          fill="#D32E2A"/>
    <path d="M512 85.122v26.845l-59.712 43.526L256 298.56 59.712 155.494 0 111.967V85.122c0-13.327 10.812-24.14 24.14-24.14h13.974L256 219.793l217.886-158.81h13.962c13.34 0 24.152 10.812 24.152 24.14z"
          fill="#F14336"/>
    <path fill="#D32E2A" d="M59.712 155.493L0 146.235v-34.268"/>
</svg>