<svg xmlns="http://www.w3.org/2000/svg" viewBox="0 0 512 512">
    <g fill="#847E74">
        <path d="M328.33 479.766h26.798v24.08H328.33z"/>
        <path d="M292.446 479.766h35.886v24.08h-35.886zM181.158 480.82h26.254v23.026h-26.254zM152.1 480.82h29.058v23.026h-29.06z"/>
    </g>
    <g fill="#D3D1CD">
        <path d="M207.41 421.966v58.856h-26.254v-64.88c8.59 2.827 17.45 4.762 26.254 6.024zM355.128 383.427v96.34H328.33V401.44c10.425-5.544 19.22-11.686 26.58-18.264l.218.25z"/>
    </g>
    <path d="M485.245 8.155L400.58 98.342l-4.088 4.36c-7.838 8.348-20.492 10.01-29.917 4.01-.783-.5-1.533-1.044-2.26-1.642-.175-.14-.338-.283-.512-.435-13.002-11.067-10.262-31.918 5.088-39.44l116.355-57.04z"
          fill="#F9D780"/>
    <path d="M398.297 262.65c-6.588.238-13.404-.38-20.318-1.97l-.23 1.012c14.416 32.777 19.123 84.034-22.84 121.485-7.36 6.577-16.154 12.72-26.58 18.264v78.328h-35.885v-61.726s-41.756 10.12-85.034 3.924c-8.805-1.26-17.665-3.196-26.253-6.023v64.88h-29.06v-54.955s-9.924-1.924-22.96-6.98c-14.762-3.684-28.036-11.13-38.722-21.285-17.818-16.905-28.472-41.267-26.94-68.097 2.425-42.702 40.43-80.033 83.165-81.762 2.62-.11 5.218-.098 7.784.022 14.328.685 27.754 4.85 39.44 11.665 4.447 2.588 8.644 5.556 12.535 8.86 8.685 7.36 21.133 8.915 31.167 3.534.467-.25.924-.51 1.37-.783.337-.195.652-.412.968-.608 44.213-27.134 5.588-70.14 5.588-132.954s53.9-69.717 53.9-69.717c0-8.25 1.02-15.143 2.706-20.904 8.174-27.906 32.036-29.34 32.036-29.34v47.452h.054c1.413-48.3 34.7-50.442 34.7-50.442v50.67c-15.35 7.523-18.09 28.374-5.087 39.44.174.153.337.295.51.436 9.568 7.87 23.7 6.664 32.18-2.37l4.088-4.36.012.012c8.556 12.708 17.905 26.004 27.754 39.17 0 0 0 .01.01.02 5.35 7.143 10.84 14.23 16.438 21.178 40.657 50.375 4.01 102.166-46.497 103.927z"
          fill="#EDEAE4"/>
    <path d="M293.9 107.3s-46.835 17.82-46.835 52.812c0 22.347 8.034 38.402 12.143 54.168 6.557 25.16 91.987 48.482 97.278 38.324 0 0-74.59-24.975-83.197-110.766"
          fill="#D3D1CD"/>
    <g fill="#FFF">
        <path d="M356.487 252.604c96.66-18.835 72.543-113.55 71.87-115.06 5.348 7.142 10.838 14.23 16.436 21.177 40.658 50.377 2.283 132.205-88.306 93.884z"/>
        <path d="M398.297 262.638v.01c-6.588.24-13.404-.38-20.318-1.967l-.23 1.012c14.416 32.777 19.123 84.034-22.84 121.485-7.36 6.577-16.154 12.72-26.58 18.264 72.664-100.688 14.427-156.26 13.296-157.337l56.67 18.535z"/>
    </g>
    <path d="M302.098 46.856c-1.685 5.762-2.707 12.654-2.707 20.905 0 0-53.898 6.904-53.898 69.718s38.625 105.82-5.588 132.954c-.315.196-.63.413-.968.61-.446.27-.902.532-1.37.782-10.034 5.38-22.482 3.827-31.168-3.533-3.892-3.304-8.088-6.272-12.534-8.86 37.712-23.024 3.76-57.627 13.622-140.79 10.067-84.797 94.612-71.784 94.612-71.784z"
          fill="#FCACDF"/>
    <path d="M485.245 8.155L400.58 98.342l-4.088 4.36c-7.838 8.348-20.492 10.01-29.917 4.01l118.67-98.557z"
          fill="#F9E9C7"/>
    <path d="M88.904 399.017C73.206 430.87 29.22 432.174 29.22 432.174s28.494-24.036 7.263-80.6c-21.242-56.562-10.067-158.37 57.008-158.37 43.464 0 56.88 32.026 60.934 54.562-2.566-.12-5.164-.13-7.784-.022-42.735 1.73-80.74 39.06-83.164 81.762-1.533 26.83 9.12 51.192 26.94 68.097l-1.512 1.414z"
          fill="#FCACDF"/>
    <path fill="#FFF" d="M312.426 408.18l15.904-5.435v77.022h-15.904"/>
    <g fill="#D3D1CD">
        <path d="M192.56 419.15c66.597-9.883 99.884-40.887 99.884-40.887v39.778s-57.772 19.688-99.885 1.11zM101.525 339.693c0 59.79 50.573 86.176 50.573 86.176s-9.925-1.925-22.96-6.98c-14.763-3.685-28.037-11.132-38.723-21.286-17.818-16.905-28.472-41.267-26.94-68.097 2.425-42.702 40.43-80.033 83.165-81.762 2.62-.11 5.218-.098 7.784.022 0 0-52.9 28.873-52.9 91.926z"/>
    </g>
    <path d="M63.476 329.506c-1.533 26.83 9.12 51.192 26.94 68.097l-1.512 1.413c-15.698 31.852-59.683 33.157-59.683 33.157s28.494-24.036 7.263-80.6c-1.663-4.424-3.12-9.12-4.38-14.034 10.37-10.383 16.72-24.505 20.48-36.028 3.75-11.534 4.914-20.47 4.914-20.47.554-68.195 58.683-26.406 58.683-26.406l-.533.76c-28.678 13.286-50.355 42.203-52.17 74.11z"
          fill="#DB91C5"/>
    <path d="M331.228 185.14H314.56c-4.503 0-8.153-3.65-8.153-8.152 0-4.503 3.65-8.153 8.153-8.153h16.67c4.502 0 8.152 3.65 8.152 8.153 0 4.502-3.65 8.153-8.154 8.153z"
          fill="#E58376"/>
    <path d="M491.802 3.31C489.462.14 485.19-.9 481.656.833L377.044 52.118V14.525c0-2.254-.933-4.406-2.576-5.948s-3.858-2.334-6.1-2.19c-1.108.073-11.107.924-21.287 8.797-1.733 1.342-3.322 2.78-4.792 4.288v-1.958c0-2.247-.928-4.395-2.563-5.936-1.637-1.54-3.84-2.34-6.08-2.202-1.123.067-25.872 1.894-37.1 28.777-12.912-.74-41.692-.013-65.04 17.734-18.073 13.74-28.878 34.528-32.115 61.79-4.242 35.782-.53 63.404 2.18 83.572 3.716 27.637 4.485 39.138-8.157 48.653-10.05-5.134-21.026-8.45-32.263-9.755-8.476-35.592-32.297-55.098-67.658-55.098-4.503 0-8.153 3.65-8.153 8.153s3.65 8.153 8.152 8.153c16.808 0 29.95 5.38 39.058 15.988 5.823 6.78 9.405 14.98 11.608 22.392-8.842.58-17.562 2.51-25.926 5.695-17.033-14.646-36.827-16.1-54.953-3.805-3.728 2.528-4.7 7.598-2.17 11.324 2.527 3.726 7.597 4.698 11.323 2.17 9.93-6.736 19.772-7.237 29.374-1.545-6.24 3.882-12.143 8.522-17.582 13.867-17.344 17.046-27.604 38.922-28.89 61.596-1.47 25.687 7.426 50.617 24.55 69.445-7.908 12.99-22.04 19.402-33.415 22.545 6.375-14.38 10.515-38.033-2.357-72.323-16.97-45.193-11.024-115.785 22.08-139.064 3.683-2.59 4.57-7.675 1.98-11.358-2.59-3.684-7.677-4.568-11.36-1.98-19.322 13.59-32.35 39.423-36.678 72.743-3.76 28.93-.5 60.852 8.716 85.394 18.72 49.868-3.98 70.697-4.884 71.5-2.65 2.237-3.597 5.905-2.358 9.145 1.21 3.164 4.244 5.242 7.614 5.242.08 0 .162 0 .244-.003 1.855-.055 42.644-1.62 62.582-30.596 13.414 13.414 47.614 21.428 51.9 22.57v71.55c0 4.503 3.65 8.153 8.152 8.153h55.313c4.503 0 8.153-3.65 8.153-8.152v-72.713c7.423.708 14.705 1.007 21.66 1.007 19.738 0 36.83-2.342 47.068-4.145v75.85c0 4.504 3.65 8.154 8.153 8.154h62.683c4.503 0 8.153-3.65 8.153-8.152V386.544c14.04-13.39 23.726-29.165 28.814-46.95 1.24-4.33-1.267-8.844-5.595-10.082-4.327-1.238-8.843 1.267-10.08 5.595-4.577 15.99-13.64 30.116-26.942 41.99-7.083 6.328-15.486 12.096-24.975 17.144-2.66 1.416-4.326 4.185-4.326 7.2v70.173H300.6v-93.35c0-4.504-3.65-8.154-8.153-8.154s-8.153 3.65-8.153 8.152v33.14c-12.903 2.422-44.025 7.03-75.725 2.492-8.873-1.27-17.237-3.187-24.86-5.696-4.278-1.408-8.887.918-10.295 5.195-.267.813-.4 1.637-.41 2.45v56.825h-12.75v-46.8c0-3.898-2.77-7.253-6.594-8.002-.092-.018-27.898-8.377-30.5-9.332-10.054-3.686-19.316-9.42-27.13-16.846-16.842-15.978-25.74-38.473-24.41-61.72 2.19-38.59 36.698-72.514 75.36-74.077 2.332-.096 4.71-.09 7.057.02 12.55.6 24.903 4.254 35.73 10.57 4.013 2.334 7.834 5.036 11.364 8.033 11.287 9.563 27.478 11.37 40.284 4.503.812-.434 2.758-1.633 2.758-1.633 33.58-20.608 26.217-50.538 18.42-82.225-2.81-11.418-5.714-23.225-7.442-36.126-.598-4.464-4.7-7.596-9.163-7-4.463.6-7.597 4.702-7 9.164 1.846 13.776 4.994 26.57 7.77 37.858 8.317 33.803 11.32 50.663-11.147 64.452-.254.158-1.457.894-1.893 1.135-6.963 3.735-15.823 2.704-22.037-2.56-1.256-1.067-2.55-2.093-3.867-3.096 15.885-15.412 13.207-35.457 9.922-59.904-2.74-20.38-6.15-45.746-2.15-79.478 2.69-22.65 11.334-39.694 25.695-50.656 17.23-13.153 39.05-14.832 50.92-14.61-.324 2.22-.59 4.488-.746 6.84-5.906 1.637-14.833 4.917-23.733 11.244-13.858 9.85-30.378 29.134-30.378 65.06 0 4.503 3.65 8.153 8.153 8.153s8.153-3.65 8.153-8.153c0-54.596 44.904-61.372 46.782-61.63 4.07-.52 7.117-3.985 7.117-8.087 0-6.955.8-13.218 2.378-18.613 3.508-11.972 10.43-17.866 16.06-20.755V64.97c0 .2.016.397.03.595-.026.973-.03 1.888-.03 2.622 0 4.503 3.65 8.153 8.153 8.153s8.153-3.65 8.153-8.153c0-.984.01-1.937.05-2.98.5-17.047 5.237-29.365 14.08-36.612 1.46-1.197 2.924-2.156 4.318-2.923v34.946c-7.202 5.154-12 13.083-13.126 22.062-1.337 10.665 2.722 21.176 10.86 28.13.236.204.458.395.66.56 5.772 4.747 12.81 7.076 19.857 7.076 7.26 0 14.526-2.485 20.415-7.335 1.235 1.8 2.47 3.58 3.7 5.35-11.177 3.522-18.967 14.34-18.173 26.54.28 4.315 3.867 7.625 8.128 7.625.178 0 .358-.005.538-.017 4.493-.292 7.9-4.172 7.607-8.665-.35-5.357 3.723-10.005 9.083-10.36 1.348-.09 2.706.118 3.98.586 8.2 11.294 16.285 21.887 24.18 31.675 6.04 7.483 10.347 15.19 12.895 22.87-.773.232-1.535.583-2.264 1.087-2.88 1.992-4.143 5.706-3.143 9.052 1.013 3.39 4.258 5.793 7.8 5.793.12 0 .236-.025.357-.03.095 8.868-2.29 17.45-7.217 25.34-13.123 21.004-40.077 30.964-67.074 24.78-6.61-1.516-13.17-3.983-19.497-7.334-53.902-28.566-76.624-62.156-79.914-84.064-2.512-16.727 3.973-32.968 19.276-48.27 3.184-3.184 3.184-8.346 0-11.53-3.184-3.184-8.347-3.184-11.53 0-19.163 19.163-27.194 40.096-23.872 62.22 7.448 49.602 69.55 86.06 88.406 96.054 6.045 3.202 12.292 5.724 18.628 7.55 3.824 9.273 8.036 22.983 8.54 39.218.136 4.415 3.758 7.9 8.144 7.9.086 0 .172 0 .258-.003 4.5-.14 8.036-3.903 7.897-8.403-.425-13.674-3.134-25.762-6.273-35.425 1.943.132 3.88.204 5.805.204 26.768 0 51.486-12.57 65.035-34.258 15.688-25.11 12.112-56.136-9.566-82.992-12.952-16.057-26.44-34.35-40.144-54.436l80.194-85.43c2.694-2.876 2.953-7.264.612-10.43zM336.484 495.693v-7.773h10.49v7.774h-10.49zm0-89.438c3.655-2.087 7.15-4.284 10.49-6.573v71.93h-10.49v-65.357zm-16.307 81.665v7.774h-19.58v-7.773h19.58zm-130.867 7.774v-6.718h9.947v6.718h-9.947zm0-68.943c3.236.802 6.553 1.52 9.947 2.143v43.776h-9.947v-45.92zm-16.307 62.225v6.718H160.25v-6.718h12.753zm218.96-393.36c-4.4-17.306-2.41-27.886-1.14-32.09l19.608-9.613c-1.563 7.026-2.368 15.14-.912 23l-17.556 18.702zm-22.787 2.89l-.088-.077c-4.03-3.43-5.96-8.43-5.296-13.722.674-5.37 3.84-9.813 8.687-12.19l.5-.244c-.366 7.56.403 17.43 3.792 29.693-2.62-.387-5.152-1.442-7.313-3.22-.098-.078-.187-.157-.284-.24zm56.766-39.09c1.16-6.138 3.223-11.82 4.844-15.483l17.95-8.8-22.794 24.283z"/>
    <path d="M415.993 203.305c.864-7.29-7.977-11.987-13.504-7.09-5.49 4.864-1.91 14.244 5.413 14.244 4.06 0 7.612-3.115 8.09-7.155zM345.993 138.787c2.593-.172 5.1.68 7.052 2.393 1.955 1.713 3.124 4.085 3.295 6.68.295 4.492 4.18 7.897 8.67 7.6 4.494-.296 7.898-4.178 7.602-8.67-.456-6.94-3.587-13.288-8.816-17.872-5.23-4.585-11.932-6.856-18.87-6.403-14.327.94-25.217 13.362-24.276 27.688.283 4.312 3.868 7.62 8.128 7.62.18 0 .36-.005.542-.017 4.493-.295 7.897-4.177 7.602-8.67-.353-5.356 3.718-9.998 9.07-10.35z"/>
</svg>